#!OML:ASF X:\für Bonn\!DataBase\2005_08_11_Bastian_Final\c3d\Bastian.ASF
:FULLY-SPECIFIED
:DEGREES
230
root 6.868 16.1409 -2.77422 162.284 75.686 -197.256
lowerback 56.7916 -8.68824 12.14
upperback 17.438 2.32161 5.64569
thorax -1.13579 3.23937 0.0710554
lowerneck -5.40115 -12.4719 0.0991129
upperneck -24.7482 -14.2113 15.5802
head -5.41955 -7.90102 5.22615
rclavicle 2.8625e-014 2.70347e-014
rhumerus 14.9268 22.0015 -48.6516
rradius 27.2517
rwrist -6.10664
rhand -23.3189 1.65569
rfingers 7.12502
rthumb 3.1351 -28.301
lclavicle 2.8625e-014 2.70347e-014
lhumerus 13.2866 -36.5125 76.2658
lradius 47.5719
lwrist 21.3571
lhand -12.9224 -9.44992
lfingers 7.12502
lthumb 13.168 20.1143
rfemur -40.0365 -1.43255 13.8645
rtibia 60.906
rfoot -12.2311 -7.9618
rtoes -15.4182
lfemur -32.4082 -3.38547 -27.8006
ltibia 54.1655
lfoot -12.0119 -9.8174
ltoes 0.18618
231
root 6.92205 16.2213 -2.76319 162.794 75.7331 -196.479
lowerback 56.3619 -8.62858 12.0894
upperback 17.4059 2.21909 5.55341
thorax -1.15705 3.18491 0.00670794
lowerneck -5.66993 -12.4676 0.016715
upperneck -24.3638 -14.2674 15.4037
head -5.25785 -7.88589 5.13779
rclavicle 2.22639e-014 5.48646e-014
rhumerus 13.9498 22.8365 -49.6034
rradius 27.4376
rwrist -5.68881
rhand -22.7721 1.99313
rfingers 7.12502
rthumb 3.66314 -27.9551
lclavicle 2.22639e-014 5.48646e-014
lhumerus 13.0295 -36.4278 76.3494
lradius 47.6264
lwrist 21.1443
lhand -12.7373 -9.58077
lfingers 7.12502
lthumb 13.3464 19.9718
rfemur -38.8853 -1.39844 14.1761
rtibia 59.782
rfoot -12.1451 -7.94872
rtoes -15.3715
lfemur -31.2541 -3.38373 -27.4882
ltibia 52.9507
lfoot -11.7553 -9.77191
ltoes -0.171305
232
root 6.97898 16.2986 -2.75093 163.21 75.786 -195.823
lowerback 55.8758 -8.52226 11.9982
upperback 17.4068 2.13769 5.47426
thorax -1.14149 3.13942 -0.0361079
lowerneck -6.03577 -12.4723 0.00511655
upperneck -23.9696 -14.3441 15.1773
head -5.08793 -7.88015 5.018
rclavicle -3.18055e-015 4.85035e-014
rhumerus 12.9732 23.6164 -50.5612
rradius 27.6172
rwrist -5.35394
rhand -22.2351 2.27425
rfingers 7.12502
rthumb 4.18171 -27.6645
lclavicle -3.18055e-015 4.85035e-014
lhumerus 12.8578 -36.3638 76.3823
lradius 47.684
lwrist 20.9604
lhand -12.5699 -9.72649
lfingers 7.12502
lthumb 13.5078 19.8154
rfemur -37.785 -1.36486 14.4645
rtibia 58.6912
rfoot -12.0291 -7.91581
rtoes -15.3854
lfemur -30.1298 -3.35739 -27.2077
ltibia 51.7472
lfoot -11.5371 -9.72836
ltoes -0.822437
233
root 7.03589 16.3724 -2.73917 163.507 75.8302 -195.286
lowerback 55.2997 -8.4027 11.8696
upperback 17.4656 2.03679 5.38697
thorax -1.05705 3.09009 -0.0657617
lowerneck -6.40796 -12.4618 -0.0288565
upperneck -23.5781 -14.3863 15.0095
head -4.91376 -7.85946 4.91982
rclavicle -1.59028e-014 -6.91771e-014
rhumerus 12.0388 24.5218 -51.4225
rradius 27.8463
rwrist -5.20063
rhand -21.7752 2.53009
rfingers 7.12502
rthumb 4.62583 -27.3994
lclavicle -1.59028e-014 -6.91771e-014
lhumerus 12.7225 -36.2615 76.3966
lradius 47.7572
lwrist 20.7568
lhand -12.4463 -9.77514
lfingers 7.12502
lthumb 13.6269 19.7588
rfemur -36.7042 -1.37029 14.7189
rtibia 57.6265
rfoot -11.961 -7.85776
rtoes -15.3412
lfemur -29.0131 -3.34732 -26.9572
ltibia 50.5654
lfoot -11.32 -9.68281
ltoes -1.31933
234
root 7.09452 16.4429 -2.72736 163.938 75.8759 -194.629
lowerback 54.661 -8.28876 11.7891
upperback 17.5423 1.94525 5.307
thorax -0.940674 3.04897 -0.1109
lowerneck -6.78577 -12.4678 -0.0869941
upperneck -23.2065 -14.4439 14.8711
head -4.73989 -7.84692 4.83531
rclavicle 6.99722e-014 1.37559e-013
rhumerus 11.0485 25.1514 -52.397
rradius 28.0264
rwrist -4.85835
rhand -21.2473 2.84293
rfingers 7.12502
rthumb 5.13556 -27.0748
lclavicle 6.99722e-014 1.37559e-013
lhumerus 12.6711 -36.2254 76.3617
lradius 47.7979
lwrist 20.6093
lhand -12.3988 -9.79071
lfingers 7.12502
lthumb 13.6727 19.7402
rfemur -35.6586 -1.39187 15.0064
rtibia 56.5969
rfoot -11.864 -7.80113
rtoes -15.3326
lfemur -27.9256 -3.33295 -26.683
ltibia 49.4055
lfoot -11.1119 -9.63541
ltoes -2.15641
235
root 7.15517 16.5107 -2.71439 164.26 75.9284 -194.081
lowerback 53.9483 -8.12045 11.6391
upperback 17.6691 1.87362 5.26568
thorax -0.767205 3.01463 -0.0937001
lowerneck -7.09354 -12.4643 -0.208898
upperneck -22.923 -14.4679 14.7817
head -4.59763 -7.81989 4.78563
rclavicle 3.18055e-015 -3.10104e-014
rhumerus 10.0923 25.812 -53.2971
rradius 28.197
rwrist -4.64012
rhand -20.7663 3.07535
rfingers 7.12502
rthumb 5.59999 -26.8307
lclavicle 3.18055e-015 -3.10104e-014
lhumerus 12.6418 -36.1914 76.3624
lradius 47.8283
lwrist 20.4592
lhand -12.4367 -9.76069
lfingers 7.12502
lthumb 13.6362 19.7727
rfemur -34.612 -1.4 15.2717
rtibia 55.586
rfoot -11.7942 -7.73675
rtoes -15.2727
lfemur -26.8473 -3.29262 -26.4254
ltibia 48.2838
lfoot -10.9218 -9.64285
ltoes -2.47053
236
root 7.21691 16.575 -2.70233 164.741 75.9881 -193.429
lowerback 53.099 -7.95338 11.5485
upperback 17.8251 1.80321 5.22579
thorax -0.539074 2.98582 -0.10225
lowerneck -7.41165 -12.4663 -0.394694
upperneck -22.6069 -14.4895 14.7643
head -4.43183 -7.79036 4.76372
rclavicle 1.43125e-013 9.06458e-014
rhumerus 9.08708 26.382 -54.2197
rradius 28.3913
rwrist -4.47463
rhand -20.3246 3.30663
rfingers 7.12502
rthumb 6.02646 -26.5877
lclavicle 1.43125e-013 9.06458e-014
lhumerus 12.6697 -36.1589 76.3375
lradius 47.8564
lwrist 20.3391
lhand -12.4219 -9.70144
lfingers 7.12502
lthumb 13.6504 19.8309
rfemur -33.6565 -1.40663 15.5606
rtibia 54.6056
rfoot -11.7243 -7.66681
rtoes -15.0438
lfemur -25.857 -3.24556 -26.1479
ltibia 47.201
lfoot -10.759 -9.62223
ltoes -3.15881
237
root 7.27998 16.6371 -2.68896 165.371 76.0404 -192.624
lowerback 52.2149 -7.77434 11.4497
upperback 17.9938 1.74391 5.22012
thorax -0.288133 2.95998 -0.0740642
lowerneck -7.65078 -12.465 -0.581555
upperneck -22.3934 -14.4937 14.7493
head -4.31202 -7.75708 4.75517
rclavicle -4.45278e-014 -7.95139e-015
rhumerus 8.10803 26.9183 -55.1165
rradius 28.5635
rwrist -4.24716
rhand -19.8256 3.44587
rfingers 7.12502
rthumb 6.50822 -26.4341
lclavicle -4.45278e-014 -7.95139e-015
lhumerus 12.6754 -36.1277 76.3461
lradius 47.8638
lwrist 20.1899
lhand -12.4586 -9.70401
lfingers 7.12502
lthumb 13.615 19.8308
rfemur -32.7011 -1.40795 15.889
rtibia 53.6386
rfoot -11.6408 -7.61504
rtoes -14.841
lfemur -24.8868 -3.18462 -25.8224
ltibia 46.156
lfoot -10.5947 -9.65225
ltoes -3.68666
238
root 7.34505 16.695 -2.67555 166.274 76.0915 -191.575
lowerback 51.2699 -7.62026 11.4421
upperback 18.1369 1.68245 5.19346
thorax -0.0424047 2.93631 -0.10768
lowerneck -7.93331 -12.4678 -0.667461
upperneck -22.1263 -14.5215 14.6595
head -4.18343 -7.73686 4.70456
rclavicle 1.01778e-013 2.3059e-014
rhumerus 7.05591 27.3635 -56.1287
rradius 28.7056
rwrist -4.06201
rhand -19.4515 3.52739
rfingers 7.12502
rthumb 6.86935 -26.3412
lclavicle 1.01778e-013 2.3059e-014
lhumerus 12.6503 -36.0861 76.3594
lradius 47.8523
lwrist 20.0563
lhand -12.4537 -9.68157
lfingers 7.12502
lthumb 13.6197 19.8529
rfemur -31.7872 -1.38462 16.2779
rtibia 52.6946
rfoot -11.575 -7.61211
rtoes -14.6701
lfemur -23.9753 -3.15227 -25.4383
ltibia 45.1563
lfoot -10.4475 -9.66002
ltoes -4.33994
239
root 7.41178 16.7525 -2.66198 166.947 76.111 -190.761
lowerback 50.3366 -7.44361 11.3515
upperback 18.2347 1.60659 5.17921
thorax 0.152193 2.89201 -0.089633
lowerneck -8.13371 -12.4565 -0.819924
upperneck -21.8286 -14.5289 14.5851
head -4.05263 -7.70576 4.67228
rclavicle -3.18055e-014 -3.33958e-014
rhumerus 5.96961 27.8773 -57.1469
rradius 28.8597
rwrist -3.89403
rhand -19.0987 3.53175
rfingers 7.12502
rthumb 7.20991 -26.3254
lclavicle -3.18055e-014 -3.33958e-014
lhumerus 12.4756 -36.0421 76.4417
lradius 47.8396
lwrist 19.9556
lhand -12.4614 -9.71804
lfingers 7.12502
lthumb 13.6124 19.8169
rfemur -30.8736 -1.3615 16.5944
rtibia 51.7715
rfoot -11.5436 -7.61553
rtoes -14.4004
lfemur -23.0675 -3.11071 -25.1184
ltibia 44.1869
lfoot -10.3254 -9.70844
ltoes -4.83538
240
root 7.48091 16.8056 -2.64809 167.987 76.1686 -189.589
lowerback 49.3547 -7.27599 11.3567
upperback 18.3309 1.55491 5.15924
thorax 0.369926 2.86533 -0.127088
lowerneck -8.33373 -12.438 -0.837656
upperneck -21.5519 -14.5414 14.4084
head -3.94988 -7.68261 4.59323
rclavicle -1.90833e-014 -2.06736e-014
rhumerus 4.86418 28.3923 -58.1696
rradius 29.0236
rwrist -3.92222
rhand -18.8057 3.48766
rfingers 7.12502
rthumb 7.49273 -26.3596
lclavicle -1.90833e-014 -2.06736e-014
lhumerus 12.328 -36.0427 76.4536
lradius 47.8395
lwrist 19.9747
lhand -12.3913 -9.74222
lfingers 7.12502
lthumb 13.6799 19.7882
rfemur -29.9937 -1.32332 17.0182
rtibia 50.867
rfoot -11.4849 -7.61798
rtoes -14.0993
lfemur -22.1977 -3.06284 -24.6975
ltibia 43.2598
lfoot -10.2225 -9.75444
ltoes -5.37362
